<?xml version="1.0" encoding="UTF-8" standalone="no"?>
<svg
   xmlns:dc="http://purl.org/dc/elements/1.1/"
   xmlns:cc="http://creativecommons.org/ns#"
   xmlns:rdf="http://www.w3.org/1999/02/22-rdf-syntax-ns#"
   xmlns:svg="http://www.w3.org/2000/svg"
   xmlns="http://www.w3.org/2000/svg"
   xmlns:xlink="http://www.w3.org/1999/xlink"
   xmlns:sodipodi="http://sodipodi.sourceforge.net/DTD/sodipodi-0.dtd"
   xmlns:inkscape="http://www.inkscape.org/namespaces/inkscape"
   viewBox="0 0 793.7007874015749 1122.5196850393702"
   width="793.7007874015749"
   height="1122.5196850393702"
   version="1.1"
   id="svg70"
   sodipodi:docname="eye4_inversion.svg"
   inkscape:version="1.0 (4035a4fb49, 2020-05-01)">
  <metadata
     id="metadata74">
    <rdf:RDF>
      <cc:Work
         rdf:about="">
        <dc:format>image/svg+xml</dc:format>
        <dc:type
           rdf:resource="http://purl.org/dc/dcmitype/StillImage" />
        <dc:title></dc:title>
      </cc:Work>
    </rdf:RDF>
  </metadata>
  <sodipodi:namedview
     inkscape:document-rotation="0"
     pagecolor="#ffffff"
     bordercolor="#666666"
     borderopacity="1"
     objecttolerance="10"
     gridtolerance="10"
     guidetolerance="10"
     inkscape:pageopacity="0"
     inkscape:pageshadow="2"
     inkscape:window-width="1920"
     inkscape:window-height="1017"
     id="namedview72"
     showgrid="false"
     inkscape:zoom="10.884327"
     inkscape:cx="159.35419"
     inkscape:cy="810.76868"
     inkscape:window-x="-8"
     inkscape:window-y="-8"
     inkscape:window-maximized="1"
     inkscape:current-layer="g66" />
  <defs
     id="defs14">
    <marker
       id="DistanceX"
       orient="auto"
       refX="0.0"
       refY="0.0"
       style="overflow:visible">
      <path
         d="M 3,-3 L -3,3 M 0,-5 L  0,5"
         style="stroke:#000000; stroke-width:0.5"
         id="path2" />
    </marker>
    <pattern
       id="Hatch"
       patternUnits="userSpaceOnUse"
       width="8"
       height="8"
       x="0"
       y="0">
      <path
         d="M8 4 l-4,4"
         stroke="#000000"
         stroke-width="0.25"
         linecap="square"
         id="path5" />
      <path
         d="M6 2 l-4,4"
         stroke="#000000"
         stroke-width="0.25"
         linecap="square"
         id="path7" />
      <path
         d="M4 0 l-4,4"
         stroke="#000000"
         stroke-width="0.25"
         linecap="square"
         id="path9" />
    </pattern>
    <symbol
       id="*MODEL_SPACE" />
    <symbol
       id="*PAPER_SPACE" />
    <filter
       height="1.0158357"
       y="-0.007917845"
       width="1.0224913"
       x="-0.011245635"
       id="filter875"
       style="color-interpolation-filters:sRGB"
       inkscape:collect="always">
      <feGaussianBlur
         id="feGaussianBlur877"
         stdDeviation="0.12219666"
         inkscape:collect="always" />
    </filter>
    <radialGradient
       inkscape:collect="always"
       xlink:href="#linearGradient900"
       id="radialGradient902"
       cx="221.57903"
       cy="1018.3085"
       fx="221.57903"
       fy="1018.3085"
       r="11.7405"
       gradientTransform="matrix(1,0,0,0.54519423,-53.969049,257.25833)"
       gradientUnits="userSpaceOnUse" />
    <linearGradient
       inkscape:collect="always"
       id="linearGradient900">
      <stop
         style="stop-color:#9ce9e6;stop-opacity:1"
         offset="0"
         id="stop896" />
      <stop
         style="stop-color:#d1f9e6;stop-opacity:1"
         offset="1"
         id="stop898" />
    </linearGradient>
    <filter
       inkscape:collect="always"
       style="color-interpolation-filters:sRGB"
       id="filter1488"
       x="-0.13731371"
       width="1.2746274"
       y="-0.25186199"
       height="1.503724">
      <feGaussianBlur
         inkscape:collect="always"
         stdDeviation="1.343443"
         id="feGaussianBlur1490" />
    </filter>
  </defs>
  <g
     inkscape:groupmode="layer"
     id="layer1"
     inkscape:label="base" />
  <g
     inkscape:groupmode="layer"
     inkscape:label="0"
     id="g66">
    <path
       inkscape:export-ydpi="119.503"
       inkscape:export-xdpi="119.503"
       d="m 128.41637,777.42398 h 76.11969 v 50.72126 h -76.11969 z"
       style="fill:#ffffff;fill-opacity:1;stroke:#ffffff;stroke-opacity:1"
       id="path16" />
    <path
       transform="matrix(-1,0,0,1,332.95243,0)"
       d="m 168.0583,785.58986 a 13.03937,18.519685 9.9999998e-7 1 0 0,37.03937 13.03937,18.519685 9.9999998e-7 1 0 0,-37.03937 z"
       style="fill:#1252e6;fill-opacity:1;stroke:#121fad;stroke-opacity:1;filter:url(#filter875)"
       id="path34"
       inkscape:export-xdpi="119.503"
       inkscape:export-ydpi="119.503" />
    <ellipse
       inkscape:export-ydpi="119.503"
       inkscape:export-xdpi="119.503"
       style="opacity:1;fill:url(#radialGradient902);fill-opacity:1;fill-rule:nonzero;stroke:none;stroke-width:11.2824;stroke-linecap:round;stroke-miterlimit:4;stroke-dasharray:none;stroke-opacity:1;filter:url(#filter1488)"
       id="path893"
       cx="167.60999"
       cy="812.43427"
       rx="11.7405"
       ry="6.4008532"
       transform="matrix(-0.74409286,0,0,0.79035217,289.62865,172.60305)" />
    <path
       inkscape:export-ydpi="119.503"
       inkscape:export-xdpi="119.503"
       d="m 164.89413,797.87332 c 0.14372,0 0.47809,0.0241 1.09259,0.71311 0.7817,0.87655 1.64272,2.88202 1.73268,5.06733 0.0881,2.13888 -0.55832,4.31831 -1.34846,5.48276 -0.64413,0.94927 -1.20462,1.16787 -1.38838,1.20098 -0.1772,0.0319 -0.29065,0.0863 -0.81596,-0.34931 -0.65191,-0.54056 -1.62087,-2.07684 -1.95727,-4.07074 -0.37605,-2.22889 0.084,-4.84773 0.9178,-6.3601 0.64359,-1.16734 1.35252,-1.58265 1.60286,-1.65744 0.074,-0.0221 0.11961,-0.0266 0.16414,-0.0266"
       style="fill:none;stroke:#000000"
       id="path48" />
    <path
       inkscape:export-ydpi="119.503"
       inkscape:export-xdpi="119.503"
       d="m 164.89413,794.04655 c 1.93546,0 4.0045,1.42205 5.31366,4.03501 1.43165,2.8574 1.73753,6.9784 0.72429,10.24432 -0.93576,3.01622 -2.89929,5.13149 -4.84893,5.6804 -1.94374,0.54726 -4.03658,-0.2645 -5.63761,-2.44505 -1.72113,-2.34412 -2.58064,-6.23179 -2.03912,-9.71441 0.52063,-3.34833 2.29438,-6.13634 4.27178,-7.21255 0.72836,-0.39641 1.474,-0.58772 2.21593,-0.58772"
       style="fill:#000000;fill-opacity:1;stroke:#000000;stroke-opacity:1"
       id="path50" />
    <path
       inkscape:export-ydpi="119.503"
       inkscape:export-xdpi="119.503"
       d="m 164.89413,812.89695 a 8.787405,5.3858288 89.999999 1 1 0,-17.57481 8.787405,5.3858288 89.999999 1 1 0,17.57481 z"
       style="fill:none;stroke:#000000"
       id="path52" />
    <path
       inkscape:export-ydpi="119.503"
       inkscape:export-xdpi="119.503"
       d="m 164.89413,811.62135 a 7.511811,4.110236 89.999999 1 1 0,-15.02362 7.511811,4.110236 89.999999 1 1 0,15.02362 z"
       style="fill:none;stroke:#000000"
       id="path54" />
  </g>
  <desc
     id="desc68">eye.dxf - scale = 1.000000, origin = (0.000000, 0.000000), method = manual</desc>
</svg>
