<?xml version="1.0" encoding="UTF-8" standalone="no"?>
<svg
   xmlns:dc="http://purl.org/dc/elements/1.1/"
   xmlns:cc="http://creativecommons.org/ns#"
   xmlns:rdf="http://www.w3.org/1999/02/22-rdf-syntax-ns#"
   xmlns:svg="http://www.w3.org/2000/svg"
   xmlns="http://www.w3.org/2000/svg"
   xmlns:sodipodi="http://sodipodi.sourceforge.net/DTD/sodipodi-0.dtd"
   xmlns:inkscape="http://www.inkscape.org/namespaces/inkscape"
   inkscape:export-ydpi="119.503"
   inkscape:export-xdpi="119.503"
   inkscape:export-filename="E:\ドキュメント\projectFile\コンパクト型コミュニケーションロボット\berryfact_V3.0\newEyes\eyelids\eyelids1.png"
   viewBox="0 0 793.7007874015749 1122.5196850393702"
   width="793.7007874015749"
   height="1122.5196850393702"
   version="1.1"
   id="svg70"
   sodipodi:docname="eyelids1.svg"
   inkscape:version="1.0 (4035a4fb49, 2020-05-01)">
  <metadata
     id="metadata74">
    <rdf:RDF>
      <cc:Work
         rdf:about="">
        <dc:format>image/svg+xml</dc:format>
        <dc:type
           rdf:resource="http://purl.org/dc/dcmitype/StillImage" />
        <dc:title></dc:title>
      </cc:Work>
    </rdf:RDF>
  </metadata>
  <sodipodi:namedview
     inkscape:document-rotation="0"
     pagecolor="#ffffff"
     bordercolor="#666666"
     borderopacity="1"
     objecttolerance="10"
     gridtolerance="10"
     guidetolerance="10"
     inkscape:pageopacity="0"
     inkscape:pageshadow="2"
     inkscape:window-width="1920"
     inkscape:window-height="1017"
     id="namedview72"
     showgrid="false"
     inkscape:zoom="8.1200418"
     inkscape:cx="160.01522"
     inkscape:cy="823.95521"
     inkscape:window-x="-8"
     inkscape:window-y="-8"
     inkscape:window-maximized="1"
     inkscape:current-layer="g66" />
  <defs
     id="defs14">
    <marker
       id="DistanceX"
       orient="auto"
       refX="0.0"
       refY="0.0"
       style="overflow:visible">
      <path
         d="M 3,-3 L -3,3 M 0,-5 L  0,5"
         style="stroke:#000000; stroke-width:0.5"
         id="path2" />
    </marker>
    <pattern
       id="Hatch"
       patternUnits="userSpaceOnUse"
       width="8"
       height="8"
       x="0"
       y="0">
      <path
         d="M8 4 l-4,4"
         stroke="#000000"
         stroke-width="0.25"
         linecap="square"
         id="path5" />
      <path
         d="M6 2 l-4,4"
         stroke="#000000"
         stroke-width="0.25"
         linecap="square"
         id="path7" />
      <path
         d="M4 0 l-4,4"
         stroke="#000000"
         stroke-width="0.25"
         linecap="square"
         id="path9" />
    </pattern>
    <symbol
       id="*MODEL_SPACE" />
    <symbol
       id="*PAPER_SPACE" />
  </defs>
  <g
     inkscape:groupmode="layer"
     id="layer1"
     inkscape:label="base" />
  <g
     inkscape:groupmode="layer"
     inkscape:label="0"
     id="g66">
    <path
       d="m 204.53606,777.42398 h -76.11969 v 50.72126 h 76.11969 z"
       style="fill:#000000;stroke:#000000;fill-opacity:1"
       id="path16" />
    <path
       d="m 204.08887,800.3 c 0.0805,0.9203 0.0698,1.94791 -0.0971,3.07715 -0.31398,2.12524 -1.1096,4.1286 -2.1984,5.95328 -0.73262,1.22776 -1.73059,2.59568 -3.09348,4.02453"
       style="fill:none;stroke:#000000"
       id="path18" />
    <path
       d="m 204.08887,800.3 c 0.0573,0.65483 0.0963,1.6604 -0.0742,2.91602 -0.13269,0.9773 -0.37371,1.96671 -0.72483,2.95745 -0.73061,2.06157 -1.90471,4.03027 -3.39263,5.83386 -2.50171,3.03245 -5.86344,5.5576 -9.54726,7.56151 -4.59491,2.49953 -11.32139,5.14711 -20.10356,6.06386 -6.5053,0.67908 -13.37689,0.29464 -19.59151,-1.2442 -5.49412,-1.36044 -9.2411,-3.34718 -11.58169,-4.89328 -2.28209,-1.50745 -4.24054,-3.2605 -5.72737,-5.20342 -1.3808,-1.80435 -2.14017,-3.50259 -2.57046,-4.96567 -0.48072,-1.63454 -0.65914,-3.36291 -0.46335,-5.16745 0.21337,-1.96655 0.86197,-3.90262 1.87438,-5.75476 0.939,-1.7178 2.56111,-4.16248 5.96519,-6.9697 3.7363,-3.08119 8.79796,-5.85897 14.83596,-7.73334 6.80446,-2.1123 14.69045,-3.00572 22.2709,-2.40743 7.19142,0.56757 12.37906,2.38278 15.53241,3.81369 3.06608,1.39131 5.81044,3.13294 7.98668,5.15866 2.04038,1.89924 3.19256,3.70283 3.86813,5.04461 0.76567,1.52073 1.28526,3.18402 1.44323,4.98959"
       style="fill:#000000;stroke:#000000;fill-opacity:1"
       id="path20" />
    <path
       d="m 147.77205,789.79864 c -1.77977,0.8245 -3.25698,1.64358 -5.11967,3.00009 -1.75884,1.28088 -3.67142,2.89001 -4.84361,4.12267 -1.00888,1.06092 -1.65023,1.9796 -2.35368,3.44399 -0.80043,1.66629 -1.42687,3.79384 -1.4589,5.36014 -0.0341,1.66741 0.45512,3.06236 1.20839,4.47439 0.84127,1.57698 2.0047,2.99936 3.64536,4.40543 2.85149,2.44377 6.2709,4.17072 10.30643,5.44032 3.21385,1.01109 6.68336,1.63222 10.14622,1.94362 2.42302,0.21789 5.10294,0.25897 7.86664,0.0997 2.60495,-0.15015 4.95649,-0.45657 6.94182,-0.82684 2.36843,-0.44172 4.55249,-0.9464 7.01951,-1.79964 2.04105,-0.70591 4.29048,-1.67491 5.98452,-2.46167 1.46707,-0.68134 2.52158,-1.26218 4.05311,-2.34909 1.57382,-1.11693 3.40976,-2.56435 4.29096,-3.34414 0.61737,-0.54632 0.91047,-0.86657 1.57104,-1.78797 0.79111,-1.10347 1.90799,-2.9192 2.50246,-4.18913 0.69179,-1.47782 0.66893,-1.88536 0.75035,-2.80462 0.10657,-1.20318 0.2017,-2.07963 -0.29935,-3.69843 -0.51633,-1.66815 -1.75395,-3.85325 -3.54741,-5.6091 -1.77437,-1.73715 -4.28091,-3.30292 -7.03949,-4.5738 -2.78273,-1.28201 -5.56893,-2.10699 -7.86414,-2.60981 -1.77589,-0.38904 -3.18415,-0.64872 -4.94567,-0.83732 -1.6159,-0.17301 -3.85962,-0.27447 -6.36746,-0.25503 -2.65066,0.0205 -5.26448,0.17538 -7.18212,0.41405 -1.98467,0.24701 -3.56381,0.59092 -5.20874,0.9709 -1.6943,0.39139 -3.13314,0.75919 -4.57396,1.24471 -1.60847,0.54201 -3.64171,1.37379 -5.48261,2.22662"
       style="fill:none;stroke:#000000"
       id="path22" />
    <path
       d="m 168.0583,781.16313 v 0.0424"
       style="fill:none;stroke:#000000"
       id="path26" />
    <path
       d="m 168.0583,781.20553 v -0.0424"
       style="fill:none;stroke:#000000"
       id="path32" />
    <path
       sodipodi:nodetypes="cc"
       d="m 137.27601,807.41059 c 20.36851,19.49212 43.18669,14.77123 60.26543,-6.45684"
       style="fill:none;stroke:#121fad;stroke-width:2.054;stroke-opacity:1;stroke-miterlimit:4;stroke-dasharray:none;stroke-linecap:round"
       id="path64" />
  </g>
  <desc
     id="desc68">eye.dxf - scale = 1.000000, origin = (0.000000, 0.000000), method = manual</desc>
</svg>
