<?xml version="1.0" encoding="UTF-8" standalone="no"?>
<svg
   xmlns:dc="http://purl.org/dc/elements/1.1/"
   xmlns:cc="http://creativecommons.org/ns#"
   xmlns:rdf="http://www.w3.org/1999/02/22-rdf-syntax-ns#"
   xmlns:svg="http://www.w3.org/2000/svg"
   xmlns="http://www.w3.org/2000/svg"
   xmlns:sodipodi="http://sodipodi.sourceforge.net/DTD/sodipodi-0.dtd"
   xmlns:inkscape="http://www.inkscape.org/namespaces/inkscape"
   inkscape:version="1.0 (4035a4fb49, 2020-05-01)"
   sodipodi:docname="eyelids3.svg"
   id="svg70"
   version="1.1"
   height="1122.5196850393702"
   width="793.7007874015749"
   viewBox="0 0 793.7007874015749 1122.5196850393702">
  <metadata
     id="metadata74">
    <rdf:RDF>
      <cc:Work
         rdf:about="">
        <dc:format>image/svg+xml</dc:format>
        <dc:type
           rdf:resource="http://purl.org/dc/dcmitype/StillImage" />
        <dc:title></dc:title>
      </cc:Work>
    </rdf:RDF>
  </metadata>
  <sodipodi:namedview
     inkscape:current-layer="layer1"
     inkscape:window-maximized="1"
     inkscape:window-y="-8"
     inkscape:window-x="-8"
     inkscape:cy="835.31531"
     inkscape:cx="135.36919"
     inkscape:zoom="8.3405389"
     showgrid="false"
     id="namedview72"
     inkscape:window-height="1017"
     inkscape:window-width="1920"
     inkscape:pageshadow="2"
     inkscape:pageopacity="0"
     guidetolerance="10"
     gridtolerance="10"
     objecttolerance="10"
     borderopacity="1"
     bordercolor="#666666"
     pagecolor="#ffffff" />
  <defs
     id="defs14">
    <marker
       style="overflow:visible"
       refY="0.0"
       refX="0.0"
       orient="auto"
       id="DistanceX">
      <path
         id="path2"
         style="stroke:#000000; stroke-width:0.5"
         d="M 3,-3 L -3,3 M 0,-5 L  0,5" />
    </marker>
    <pattern
       y="0"
       x="0"
       height="8"
       width="8"
       patternUnits="userSpaceOnUse"
       id="Hatch">
      <path
         id="path5"
         linecap="square"
         stroke-width="0.25"
         stroke="#000000"
         d="M8 4 l-4,4" />
      <path
         id="path7"
         linecap="square"
         stroke-width="0.25"
         stroke="#000000"
         d="M6 2 l-4,4" />
      <path
         id="path9"
         linecap="square"
         stroke-width="0.25"
         stroke="#000000"
         d="M4 0 l-4,4" />
    </pattern>
    <symbol
       id="*MODEL_SPACE" />
    <symbol
       id="*PAPER_SPACE" />
  </defs>
  <g
     style="display:inline"
     inkscape:label="base"
     id="layer1"
     inkscape:groupmode="layer">
    <path
       inkscape:export-ydpi="119.503"
       inkscape:export-xdpi="119.503"
       id="path16"
       style="fill:#000000;fill-opacity:1;stroke:#000000"
       d="m 182.29745,791.35192 h -76.11968 v 50.72125 h 76.11968 z" />
  </g>
  <g
     id="g66"
     inkscape:label="0"
     inkscape:groupmode="layer">
    <path
       id="path18"
       style="fill:none;stroke:#000000"
       d="m 181.85026,814.22794 c 0.0805,0.9203 0.0698,1.94791 -0.0971,3.07715 -0.31399,2.12524 -1.10961,4.1286 -2.19841,5.95328 -0.73261,1.22776 -1.73059,2.59568 -3.09348,4.02453" />
    <path
       id="path20"
       style="fill:#000000;stroke:#000000;fill-opacity:1"
       d="m 181.85026,814.22794 c 0.0573,0.65483 0.0963,1.6604 -0.0742,2.91602 -0.13269,0.9773 -0.37371,1.96671 -0.72482,2.95745 -0.73062,2.06157 -1.90472,4.03027 -3.39264,5.83386 -2.50171,3.03245 -5.86344,5.5576 -9.54725,7.56151 -4.59492,2.49953 -11.3214,5.14711 -20.10356,6.06386 -6.5053,0.67908 -13.3769,0.29464 -19.59152,-1.24421 -5.49411,-1.36043 -9.2411,-3.34718 -11.58169,-4.89327 -2.28209,-1.50745 -4.24053,-3.26051 -5.72737,-5.20342 -1.38079,-1.80435 -2.14017,-3.50259 -2.57046,-4.96567 -0.48072,-1.63455 -0.65914,-3.36291 -0.46335,-5.16745 0.21337,-1.96656 0.86197,-3.90263 1.87439,-5.75476 0.93899,-1.71781 2.5611,-4.16248 5.96518,-6.9697 3.7363,-3.08119 8.79797,-5.85898 14.83597,-7.73334 6.80446,-2.1123 14.69044,-3.00572 22.2709,-2.40744 7.19141,0.56758 12.37906,2.38279 15.5324,3.8137 3.06608,1.39131 5.81044,3.13294 7.98669,5.15866 2.04037,1.89924 3.19256,3.70283 3.86813,5.04461 0.76566,1.52073 1.28526,3.18402 1.44322,4.98959" />
    <path
       id="path26"
       style="fill:none;stroke:#000000"
       d="m 145.8197,795.09107 v 0.0424" />
    <path
       id="path32"
       style="fill:none;stroke:#000000"
       d="m 145.8197,795.13346 v -0.0424" />
    <path
       id="path22"
       style="fill:#fffffb;stroke:#000000;fill-opacity:1"
       d="m 125.53344,803.72657 c -1.77976,0.82451 -3.25698,1.64359 -5.11967,3.0001 -1.75884,1.28088 -3.67141,2.89001 -4.84361,4.12267 -1.00888,1.06092 -1.65022,1.9796 -2.35367,3.44399 -0.80044,1.66629 -1.42688,3.79384 -1.4589,5.36014 -0.0341,1.6674 0.45511,3.06236 1.20838,4.47439 0.84127,1.57698 2.0047,2.99936 3.64536,4.40543 2.85149,2.44377 6.27091,4.17072 10.30644,5.44032 3.21384,1.01109 6.68335,1.63222 10.14621,1.94362 2.42302,0.21789 5.10294,0.25897 7.86665,0.0997 2.60494,-0.15015 4.95648,-0.45657 6.94181,-0.82684 2.36843,-0.44173 4.55249,-0.9464 7.01952,-1.79964 2.04104,-0.70591 4.29047,-1.67492 5.98452,-2.46167 1.46706,-0.68134 2.52157,-1.26218 4.0531,-2.3491 1.57382,-1.11692 3.40976,-2.56434 4.29096,-3.34413 0.61737,-0.54632 0.91047,-0.86657 1.57104,-1.78797 0.79111,-1.10347 1.90799,-2.9192 2.50246,-4.18913 0.69179,-1.47782 0.66893,-1.88536 0.75036,-2.80462 0.10657,-1.20318 0.2017,-2.07963 -0.29936,-3.69843 -0.51633,-1.66815 -1.75394,-3.85325 -3.54741,-5.6091 -1.77436,-1.73715 -4.28091,-3.30292 -7.03948,-4.5738 -2.78274,-1.28201 -5.56893,-2.107 -7.86415,-2.60981 -1.77588,-0.38904 -3.18414,-0.64872 -4.94567,-0.83732 -1.6159,-0.17301 -3.85961,-0.27447 -6.36745,-0.25503 -2.65067,0.0205 -5.26449,0.17538 -7.18213,0.41405 -1.98467,0.24701 -3.56381,0.59092 -5.20873,0.9709 -1.6943,0.39139 -3.13315,0.75919 -4.57397,1.24471 -1.60847,0.54201 -3.64171,1.37379 -5.48261,2.22661" />
    <path
       id="path60"
       style="fill:#000000;stroke:#000000;fill-opacity:1;stroke-opacity:1"
       d="m 178.12712,814.89006 a 62.774146,62.774146 0 0 0 -66.21919,6.45114 l 0,-27.38771 h 65.65853 z" />
  </g>
  <desc
     id="desc68">eye.dxf - scale = 1.000000, origin = (0.000000, 0.000000), method = manual</desc>
</svg>
