<?xml version="1.0" encoding="UTF-8" standalone="no"?>
<svg
   xmlns:dc="http://purl.org/dc/elements/1.1/"
   xmlns:cc="http://creativecommons.org/ns#"
   xmlns:rdf="http://www.w3.org/1999/02/22-rdf-syntax-ns#"
   xmlns:svg="http://www.w3.org/2000/svg"
   xmlns="http://www.w3.org/2000/svg"
   xmlns:sodipodi="http://sodipodi.sourceforge.net/DTD/sodipodi-0.dtd"
   xmlns:inkscape="http://www.inkscape.org/namespaces/inkscape"
   inkscape:export-ydpi="119.50258"
   inkscape:export-xdpi="119.50258"
   inkscape:export-filename="E:\projectFile\コンパクト型コミュニケーションロボット\berryfact_V4.0\eyeSystem_ROS2_RP2040\eye_imgs\eyelids\smile_1\eyelids2.png"
   inkscape:version="1.0 (4035a4fb49, 2020-05-01)"
   sodipodi:docname="eyelid2.svg"
   id="svg70"
   version="1.1"
   height="51.72126"
   width="77.119682"
   viewBox="0 0 77.119681 51.721262">
  <metadata
     id="metadata74">
    <rdf:RDF>
      <cc:Work
         rdf:about="">
        <dc:format>image/svg+xml</dc:format>
        <dc:type
           rdf:resource="http://purl.org/dc/dcmitype/StillImage" />
        <dc:title></dc:title>
      </cc:Work>
    </rdf:RDF>
  </metadata>
  <sodipodi:namedview
     fit-margin-bottom="0"
     fit-margin-right="0"
     fit-margin-left="0"
     fit-margin-top="0"
     inkscape:current-layer="g66"
     inkscape:window-maximized="1"
     inkscape:window-y="-8"
     inkscape:window-x="-8"
     inkscape:cy="30.781509"
     inkscape:cx="37.111091"
     inkscape:zoom="8.3405389"
     showgrid="false"
     id="namedview72"
     inkscape:window-height="1017"
     inkscape:window-width="1920"
     inkscape:pageshadow="2"
     inkscape:pageopacity="0"
     guidetolerance="10"
     gridtolerance="10"
     objecttolerance="10"
     borderopacity="1"
     bordercolor="#666666"
     pagecolor="#ffffff" />
  <defs
     id="defs14">
    <marker
       style="overflow:visible"
       refY="0"
       refX="0"
       orient="auto"
       id="DistanceX">
      <path
         id="path2"
         style="stroke:#000000;stroke-width:0.5"
         d="M 3,-3 -3,3 M 0,-5 V 5" />
    </marker>
    <pattern
       y="0"
       x="0"
       height="8"
       width="8"
       patternUnits="userSpaceOnUse"
       id="Hatch">
      <path
         id="path5"
         linecap="square"
         stroke-width="0.25"
         stroke="#000000"
         d="M8 4 l-4,4" />
      <path
         id="path7"
         linecap="square"
         stroke-width="0.25"
         stroke="#000000"
         d="M6 2 l-4,4" />
      <path
         id="path9"
         linecap="square"
         stroke-width="0.25"
         stroke="#000000"
         d="M4 0 l-4,4" />
    </pattern>
    <symbol
       id="*MODEL_SPACE" />
    <symbol
       id="*PAPER_SPACE" />
  </defs>
  <g
     transform="translate(-161.97136,-683.01238)"
     id="g66"
     inkscape:label="0"
     inkscape:groupmode="layer">
    <path
       id="path16"
       style="fill:#000000;stroke:#000003;fill-opacity:1;stroke-opacity:1"
       d="m 238.59104,683.51238 h -76.11968 v 50.72126 h 76.11968 z" />
    <g
       id="g929">
      <path
         d="m 238.14386,706.3884 c 0.0805,0.9203 0.0698,1.94792 -0.0971,3.07716 -0.31399,2.12524 -1.1096,4.1286 -2.1984,5.95327 -0.73262,1.22776 -1.7306,2.59569 -3.09349,4.02454"
         style="fill:none;stroke:#000000"
         id="path18" />
      <path
         d="m 238.14386,706.3884 c 0.0573,0.65483 0.0962,1.6604 -0.0742,2.91602 -0.13269,0.9773 -0.37371,1.96672 -0.72482,2.95746 -0.73062,2.06157 -1.90471,4.03027 -3.39264,5.83386 -2.50171,3.03245 -5.86344,5.55759 -9.54725,7.5615 -4.59491,2.49953 -11.32139,5.14712 -20.10356,6.06387 -6.5053,0.67908 -13.3769,0.29463 -19.59151,-1.24421 -5.49412,-1.36043 -9.2411,-3.34718 -11.5817,-4.89328 -2.28208,-1.50745 -4.24053,-3.2605 -5.72736,-5.20341 -1.3808,-1.80436 -2.14018,-3.50259 -2.57047,-4.96567 -0.48072,-1.63455 -0.65913,-3.36291 -0.46334,-5.16746 0.21337,-1.96655 0.86196,-3.90262 1.87438,-5.75475 0.939,-1.71781 2.5611,-4.16248 5.96518,-6.9697 3.73631,-3.08119 8.79797,-5.85898 14.83597,-7.73335 6.80446,-2.11229 14.69044,-3.00571 22.2709,-2.40743 7.19141,0.56758 12.37906,2.38279 15.5324,3.8137 3.06608,1.39131 5.81045,3.13294 7.98669,5.15865 2.04038,1.89925 3.19256,3.70284 3.86813,5.04462 0.76566,1.52072 1.28526,3.18402 1.44323,4.98958"
         style="fill:none;stroke:#000000"
         id="path20" />
      <path
         d="m 181.82704,695.88704 c -1.77977,0.8245 -3.25699,1.64359 -5.11968,3.0001 -1.75884,1.28088 -3.67141,2.89001 -4.84361,4.12267 -1.00888,1.06091 -1.65022,1.97959 -2.35367,3.44399 -0.80043,1.66628 -1.42688,3.79383 -1.4589,5.36014 -0.0341,1.6674 0.45511,3.06236 1.20838,4.47439 0.84127,1.57698 2.00471,2.99936 3.64536,4.40543 2.85149,2.44377 6.27091,4.17071 10.30644,5.44031 3.21384,1.0111 6.68336,1.63222 10.14622,1.94363 2.42301,0.21789 5.10293,0.25897 7.86664,0.0997 2.60494,-0.15016 4.95649,-0.45657 6.94181,-0.82685 2.36844,-0.44172 4.55249,-0.94639 7.01952,-1.79963 2.04104,-0.70591 4.29047,-1.67492 5.98452,-2.46167 1.46707,-0.68134 2.52157,-1.26218 4.05311,-2.3491 1.57381,-1.11692 3.40976,-2.56434 4.29096,-3.34413 0.61737,-0.54632 0.91046,-0.86657 1.57104,-1.78797 0.7911,-1.10348 1.90798,-2.91921 2.50246,-4.18914 0.69178,-1.47781 0.66893,-1.88535 0.75035,-2.80461 0.10657,-1.20318 0.2017,-2.07963 -0.29936,-3.69843 -0.51633,-1.66815 -1.75394,-3.85325 -3.5474,-5.6091 -1.77437,-1.73715 -4.28092,-3.30292 -7.03949,-4.5738 -2.78274,-1.28202 -5.56893,-2.107 -7.86415,-2.60981 -1.77588,-0.38904 -3.18414,-0.64872 -4.94566,-0.83732 -1.61591,-0.17301 -3.85962,-0.27447 -6.36746,-0.25503 -2.65067,0.0205 -5.26449,0.17538 -7.18213,0.41405 -1.98467,0.247 -3.5638,0.59092 -5.20873,0.9709 -1.6943,0.39138 -3.13315,0.75919 -4.57397,1.24471 -1.60846,0.542 -3.6417,1.37379 -5.4826,2.22661"
         style="fill:none;stroke:#000000"
         id="path22" />
      <path
         d="m 168.20152,713.50167 66.21919,-6.45114"
         style="fill:none;stroke:#000000"
         id="path24" />
      <path
         d="m 202.11329,687.25154 v 0.0424"
         style="fill:none;stroke:#000000"
         id="path26" />
      <path
         d="m 202.11329,691.07701 v 17.65283"
         style="fill:none;stroke:#000000"
         id="path28" />
      <path
         d="M 202.11329,728.11945 V 691.07701"
         style="fill:none;stroke:#000000"
         id="path30" />
      <path
         d="m 202.11329,687.29393 v -0.0424"
         style="fill:none;stroke:#000000"
         id="path32" />
      <path
         d="m 202.11329,691.67826 a 13.03937,18.519685 9.9999998e-7 1 0 0,37.03937 13.03937,18.519685 9.9999998e-7 1 0 0,-37.03937 z"
         style="fill:none;stroke:#000000"
         id="path34" />
      <path
         d="m 189.07392,710.19795 h 26.07874"
         style="fill:none;stroke:#000000"
         id="path36" />
      <path
         d="M 202.11329,728.71763 V 691.67826"
         style="fill:none;stroke:#000000"
         id="path38" />
      <path
         d="m 202.11329,721.53653 a 7.937008,11.338583 9.9999998e-7 1 0 0,-22.67716 7.937008,11.338583 9.9999998e-7 1 0 0,22.67716 z"
         style="fill:none;stroke:#000000"
         id="path40" />
      <path
         d="M 210.0503,710.19795 H 194.17628"
         style="fill:none;stroke:#000000"
         id="path42" />
      <path
         d="m 202.11329,698.85937 v 22.67716"
         style="fill:none;stroke:#000000"
         id="path44" />
      <path
         d="m 202.11329,710.19795 h -2.83465"
         style="fill:none;stroke:#000000"
         id="path46" />
      <path
         d="m 202.11329,703.96173 c -0.14373,0 -0.4781,0.024 -1.09259,0.71311 -0.7817,0.87655 -1.64273,2.88202 -1.73269,5.06733 -0.088,2.13888 0.55832,4.31831 1.34846,5.48275 0.64414,0.94928 1.20463,1.16787 1.38839,1.20098 0.1772,0.0319 0.29065,0.0863 0.81596,-0.3493 0.65191,-0.54056 1.62087,-2.07685 1.95727,-4.07074 0.37604,-2.22889 -0.084,-4.84774 -0.91781,-6.36011 -0.64358,-1.16734 -1.35251,-1.58265 -1.60285,-1.65744 -0.074,-0.0221 -0.11962,-0.0266 -0.16414,-0.0266"
         style="fill:none;stroke:#000000"
         id="path48" />
      <path
         d="m 202.11329,700.13496 c -1.93547,0 -4.0045,1.42205 -5.31367,4.035 -1.43164,2.85741 -1.73752,6.97841 -0.72429,10.24433 0.93577,3.01622 2.8993,5.13149 4.84893,5.6804 1.94375,0.54725 4.03658,-0.26451 5.63762,-2.44505 1.72113,-2.34412 2.58063,-6.2318 2.03912,-9.71441 -0.52063,-3.34833 -2.29439,-6.13634 -4.27178,-7.21255 -0.72836,-0.39642 -1.474,-0.58772 -2.21593,-0.58772"
         style="fill:none;stroke:#000000"
         id="path50" />
      <path
         d="m 202.11329,718.98535 a 5.385827,8.787402 9.9999998e-7 1 0 0,-17.5748 5.385827,8.787402 9.9999998e-7 1 0 0,17.5748 z"
         style="fill:none;stroke:#000000"
         id="path52" />
      <path
         d="m 202.11329,717.70976 a 4.110236,7.511811 9.9999998e-7 1 0 0,-15.02362 4.110236,7.511811 9.9999998e-7 1 0 0,15.02362 z"
         style="fill:none;stroke:#000000"
         id="path54" />
      <path
         d="M 202.11329,710.19795 V 691.07701"
         style="fill:none;stroke:#000000"
         id="path56" />
      <path
         d="m 168.20152,713.50167 66.21919,-6.45114"
         style="fill:none;stroke:#000000"
         id="path58" />
      <path
         d="m 234.42071,707.05053 a 62.774146,62.774146 0 0 0 -66.21919,6.45114"
         style="fill:none;stroke:#000000"
         id="path60" />
      <path
         d="m 202.11329,728.11945 v -17.9215"
         style="fill:none;stroke:#000000"
         id="path62" />
      <path
         d="m 168.20152,713.50167 a 66.501219,66.501219 0 0 0 66.21919,-6.45114"
         style="fill:none;stroke:#000000"
         id="path64" />
    </g>
    <path
       sodipodi:nodetypes="ccc"
       id="path949"
       d="m 234.42071,707.05053 c 0,0 -33.60299,-29.88409 -66.13768,6.30822 36.85101,12.81631 66.13768,-6.30822 66.13768,-6.30822 z"
       style="fill:#ffffff;stroke:#ffffff;stroke-width:1.25331px;stroke-linecap:butt;stroke-linejoin:miter;stroke-opacity:1;fill-opacity:1" />
  </g>
  <desc
     id="desc68">eye.dxf - scale = 1.000000, origin = (0.000000, 0.000000), method = manual</desc>
</svg>
