<?xml version="1.0" encoding="UTF-8" standalone="no"?>
<svg
   xmlns:dc="http://purl.org/dc/elements/1.1/"
   xmlns:cc="http://creativecommons.org/ns#"
   xmlns:rdf="http://www.w3.org/1999/02/22-rdf-syntax-ns#"
   xmlns:svg="http://www.w3.org/2000/svg"
   xmlns="http://www.w3.org/2000/svg"
   xmlns:sodipodi="http://sodipodi.sourceforge.net/DTD/sodipodi-0.dtd"
   xmlns:inkscape="http://www.inkscape.org/namespaces/inkscape"
   viewBox="0 0 793.7007874015749 1122.5196850393702"
   width="793.7007874015749"
   height="1122.5196850393702"
   version="1.1"
   id="svg70"
   sodipodi:docname="eyelids5.svg"
   inkscape:version="1.0 (4035a4fb49, 2020-05-01)">
  <metadata
     id="metadata74">
    <rdf:RDF>
      <cc:Work
         rdf:about="">
        <dc:format>image/svg+xml</dc:format>
        <dc:type
           rdf:resource="http://purl.org/dc/dcmitype/StillImage" />
        <dc:title></dc:title>
      </cc:Work>
    </rdf:RDF>
  </metadata>
  <sodipodi:namedview
     inkscape:document-rotation="0"
     pagecolor="#ffffff"
     bordercolor="#666666"
     borderopacity="1"
     objecttolerance="10"
     gridtolerance="10"
     guidetolerance="10"
     inkscape:pageopacity="0"
     inkscape:pageshadow="2"
     inkscape:window-width="1920"
     inkscape:window-height="1017"
     id="namedview72"
     showgrid="false"
     inkscape:zoom="5.7417366"
     inkscape:cx="145.78577"
     inkscape:cy="813.85491"
     inkscape:window-x="-8"
     inkscape:window-y="-8"
     inkscape:window-maximized="1"
     inkscape:current-layer="g66" />
  <defs
     id="defs14">
    <marker
       id="DistanceX"
       orient="auto"
       refX="0.0"
       refY="0.0"
       style="overflow:visible">
      <path
         d="M 3,-3 L -3,3 M 0,-5 L  0,5"
         style="stroke:#000000; stroke-width:0.5"
         id="path2" />
    </marker>
    <pattern
       id="Hatch"
       patternUnits="userSpaceOnUse"
       width="8"
       height="8"
       x="0"
       y="0">
      <path
         d="M8 4 l-4,4"
         stroke="#000000"
         stroke-width="0.25"
         linecap="square"
         id="path5" />
      <path
         d="M6 2 l-4,4"
         stroke="#000000"
         stroke-width="0.25"
         linecap="square"
         id="path7" />
      <path
         d="M4 0 l-4,4"
         stroke="#000000"
         stroke-width="0.25"
         linecap="square"
         id="path9" />
    </pattern>
    <symbol
       id="*MODEL_SPACE" />
    <symbol
       id="*PAPER_SPACE" />
  </defs>
  <g
     inkscape:groupmode="layer"
     id="layer1"
     inkscape:label="base" />
  <g
     inkscape:groupmode="layer"
     inkscape:label="0"
     id="g66">
    <path
       inkscape:export-ydpi="119.503"
       inkscape:export-xdpi="119.503"
       d="m 204.53606,777.42398 h -76.11969 v 50.72126 h 76.11969 z"
       style="fill:#000000;stroke:#000000;fill-opacity:1"
       id="path16" />
    <path
       d="m 204.08887,800.3 c 0.0805,0.9203 0.0698,1.94791 -0.0971,3.07715 -0.31398,2.12524 -1.1096,4.1286 -2.1984,5.95328 -0.73262,1.22776 -1.73059,2.59568 -3.09348,4.02453"
       style="fill:none;stroke:#000000"
       id="path18" />
    <path
       d="m 204.08887,800.3 c 0.0573,0.65483 0.0963,1.6604 -0.0742,2.91602 -0.13269,0.9773 -0.37371,1.96671 -0.72483,2.95745 -0.73061,2.06157 -1.90471,4.03027 -3.39263,5.83386 -2.50171,3.03245 -5.86344,5.5576 -9.54726,7.56151 -4.59491,2.49953 -11.32139,5.14711 -20.10356,6.06386 -6.5053,0.67908 -13.37689,0.29464 -19.59151,-1.2442 -5.49412,-1.36044 -9.2411,-3.34718 -11.58169,-4.89328 -2.28209,-1.50745 -4.24054,-3.2605 -5.72737,-5.20342 -1.3808,-1.80435 -2.14017,-3.50259 -2.57046,-4.96567 -0.48072,-1.63454 -0.65914,-3.36291 -0.46335,-5.16745 0.21337,-1.96655 0.86197,-3.90262 1.87438,-5.75476 0.939,-1.7178 2.56111,-4.16248 5.96519,-6.9697 3.7363,-3.08119 8.79796,-5.85897 14.83596,-7.73334 6.80446,-2.1123 14.69045,-3.00572 22.2709,-2.40743 7.19142,0.56757 12.37906,2.38278 15.53241,3.81369 3.06608,1.39131 5.81044,3.13294 7.98668,5.15866 2.04038,1.89924 3.19256,3.70283 3.86813,5.04461 0.76567,1.52073 1.28526,3.18402 1.44323,4.98959"
       style="fill:#ffffff;stroke:#000000;fill-opacity:1"
       id="path20" />
    <path
       d="m 168.0583,781.16313 v 0.0424"
       style="fill:none;stroke:#000000"
       id="path26" />
    <path
       d="m 168.0583,781.20553 v -0.0424"
       style="fill:none;stroke:#000000"
       id="path32" />
  </g>
  <desc
     id="desc68">eye.dxf - scale = 1.000000, origin = (0.000000, 0.000000), method = manual</desc>
</svg>
