999
"DXF R12 Output" (www.mydxf.blogspot.com)
 0 
SECTION
 2 
HEADER
 9 
$ACADVER
 1 
AC1009
 9 
$EXTMIN
 10 
 0 
 20 
 0 
 9 
$EXTMAX
 10 
 8.5 
 20 
 11 
 0 
ENDSEC
 0 
SECTION
 2 
ENTITIES
0
LINE
8
Layer 1
10
3.000000
20
-3.000000
11
-3.000000
21
3.000000
0
LINE
8
Layer 1
10
0.000000
20
-5.000000
11
0.000000
21
5.000000
0
LINE
8
Layer 1
10
8.000000
20
4.000000
11
4.000000
21
8.000000
0
LINE
8
Layer 1
10
6.000000
20
2.000000
11
2.000000
21
6.000000
0
LINE
8
Layer 1
10
4.000000
20
0.000000
11
0.000000
21
4.000000
0
LINE
8
0
10
238.591000
20
683.512000
11
162.471300
21
683.512000
0
LINE
8
0
10
162.471300
20
683.512000
11
162.471300
21
734.233300
0
LINE
8
0
10
162.471300
20
734.233300
11
238.591000
21
734.233300
0
LINE
8
0
10
238.591000
20
734.233300
11
238.591000
21
683.512000
0
LINE
8
0
10
238.144000
20
706.388000
11
238.188225
21
707.848228
0
LINE
8
0
10
238.188225
20
707.848228
11
238.046900
21
709.465160
0
LINE
8
0
10
238.046900
20
709.465160
11
237.724048
21
711.035350
0
LINE
8
0
10
237.724048
20
711.035350
11
237.238254
21
712.554509
0
LINE
8
0
10
237.238254
20
712.554509
11
235.848500
21
715.418430
0
LINE
8
0
10
235.848500
20
715.418430
11
234.538106
21
717.355291
0
LINE
8
0
10
234.538106
20
717.355291
11
232.755010
21
719.442970
0
LINE
8
0
10
238.144000
20
706.388000
11
238.192288
21
707.620714
0
LINE
8
0
10
238.192288
20
707.620714
11
238.069800
21
709.304020
0
LINE
8
0
10
238.069800
20
709.304020
11
237.789298
21
710.777710
0
LINE
8
0
10
237.789298
20
710.777710
11
237.344980
21
712.261480
0
LINE
8
0
10
237.344980
20
712.261480
11
236.715890
21
713.789116
0
LINE
8
0
10
236.715890
20
713.789116
11
235.932651
21
715.275152
0
LINE
8
0
10
235.932651
20
715.275152
11
233.952340
21
718.095340
0
LINE
8
0
10
233.952340
20
718.095340
11
231.923209
21
720.274339
0
LINE
8
0
10
231.923209
20
720.274339
11
229.622003
21
722.261792
0
LINE
8
0
10
229.622003
20
722.261792
11
227.099152
21
724.056394
0
LINE
8
0
10
227.099152
20
724.056394
11
224.405090
21
725.656840
0
LINE
8
0
10
224.405090
20
725.656840
11
220.560422
21
727.529891
0
LINE
8
0
10
220.560422
20
727.529891
11
215.923524
21
729.282317
0
LINE
8
0
10
215.923524
20
729.282317
11
213.310211
21
730.058251
0
LINE
8
0
10
213.310211
20
730.058251
11
210.501509
21
730.737973
0
LINE
8
0
10
210.501509
20
730.737973
11
207.498305
21
731.299465
0
LINE
8
0
10
207.498305
20
731.299465
11
204.301490
21
731.720710
0
LINE
8
0
10
204.301490
20
731.720710
11
199.369823
21
732.029188
0
LINE
8
0
10
199.369823
20
732.029188
11
194.396728
21
731.930325
0
LINE
8
0
10
194.396728
20
731.930325
11
189.478138
21
731.415602
0
LINE
8
0
10
189.478138
20
731.415602
11
184.709990
21
730.476500
0
LINE
8
0
10
184.709990
20
730.476500
11
180.911664
21
729.355414
0
LINE
8
0
10
180.911664
20
729.355414
11
177.736570
21
728.099486
0
LINE
8
0
10
177.736570
20
728.099486
11
175.152761
21
726.808745
0
LINE
8
0
10
175.152761
20
726.808745
11
173.128290
21
725.583220
0
LINE
8
0
10
173.128290
20
725.583220
11
171.479723
21
724.407453
0
LINE
8
0
10
171.479723
20
724.407453
11
169.966391
21
723.144812
0
LINE
8
0
10
169.966391
20
723.144812
11
168.602169
21
721.800523
0
LINE
8
0
10
168.602169
20
721.800523
11
167.400930
21
720.379810
0
LINE
8
0
10
167.400930
20
720.379810
11
166.477279
21
719.048455
0
LINE
8
0
10
166.477279
20
719.048455
11
165.759254
21
717.768995
0
LINE
8
0
10
165.759254
20
717.768995
11
164.830460
21
715.414140
0
LINE
8
0
10
164.830460
20
715.414140
11
164.345099
21
712.894160
0
LINE
8
0
10
164.345099
20
712.894160
11
164.367120
21
710.246680
0
LINE
8
0
10
164.367120
20
710.246680
11
164.607636
21
708.778318
0
LINE
8
0
10
164.607636
20
708.778318
11
165.004666
21
707.326397
0
LINE
8
0
10
165.004666
20
707.326397
11
166.241500
21
704.491930
0
LINE
8
0
10
166.241500
20
704.491930
11
167.091001
21
703.072979
0
LINE
8
0
10
167.091001
20
703.072979
11
168.299685
21
701.415609
0
LINE
8
0
10
168.299685
20
701.415609
11
169.970571
21
699.553975
0
LINE
8
0
10
169.970571
20
699.553975
11
172.206680
21
697.522230
0
LINE
8
0
10
172.206680
20
697.522230
11
175.251963
21
695.277600
0
LINE
8
0
10
175.251963
20
695.277600
11
178.761535
21
693.202998
0
LINE
8
0
10
178.761535
20
693.202998
11
182.702680
21
691.354673
0
LINE
8
0
10
182.702680
20
691.354673
11
187.042680
21
689.788880
0
LINE
8
0
10
187.042680
20
689.788880
11
192.327132
21
688.437464
0
LINE
8
0
10
192.327132
20
688.437464
11
197.887115
21
687.568701
0
LINE
8
0
10
197.887115
20
687.568701
11
203.592606
21
687.208171
0
LINE
8
0
10
203.592606
20
687.208171
11
209.313580
21
687.381450
0
LINE
8
0
10
209.313580
20
687.381450
11
214.330961
21
688.015567
0
LINE
8
0
10
214.330961
20
688.015567
11
218.594071
21
688.964551
0
LINE
8
0
10
218.594071
20
688.964551
11
222.100036
21
690.075410
0
LINE
8
0
10
222.100036
20
690.075410
11
224.845980
21
691.195150
0
LINE
8
0
10
224.845980
20
691.195150
11
227.081369
21
692.303283
0
LINE
8
0
10
227.081369
20
692.303283
11
229.173015
21
693.536575
0
LINE
8
0
10
229.173015
20
693.536575
11
231.097816
21
694.888818
0
LINE
8
0
10
231.097816
20
694.888818
11
232.832670
21
696.353800
0
LINE
8
0
10
232.832670
20
696.353800
11
234.202849
21
697.754580
0
LINE
8
0
10
234.202849
20
697.754580
11
235.278539
21
699.085161
0
LINE
8
0
10
235.278539
20
699.085161
11
236.700800
21
701.398420
0
LINE
8
0
10
236.700800
20
701.398420
11
237.650299
21
703.786395
0
LINE
8
0
10
237.650299
20
703.786395
11
238.144030
21
706.388000
0
LINE
8
0
10
181.827000
20
695.887000
11
179.298255
21
697.187546
0
LINE
8
0
10
179.298255
20
697.187546
11
176.707320
21
698.887100
0
LINE
8
0
10
176.707320
20
698.887100
11
174.065525
21
700.966517
0
LINE
8
0
10
174.065525
20
700.966517
11
171.863710
21
703.009770
0
LINE
8
0
10
171.863710
20
703.009770
11
170.572339
21
704.580456
0
LINE
8
0
10
170.572339
20
704.580456
11
169.510040
21
706.453760
0
LINE
8
0
10
169.510040
20
706.453760
11
168.492436
21
709.171319
0
LINE
8
0
10
168.492436
20
709.171319
11
168.180041
21
710.549912
0
LINE
8
0
10
168.180041
20
710.549912
11
168.051140
21
711.813900
0
LINE
8
0
10
168.051140
20
711.813900
11
168.119635
21
713.017891
0
LINE
8
0
10
168.119635
20
713.017891
11
168.360066
21
714.146859
0
LINE
8
0
10
168.360066
20
714.146859
11
169.259520
21
716.288290
0
LINE
8
0
10
169.259520
20
716.288290
11
170.782432
21
718.555096
0
LINE
8
0
10
170.782432
20
718.555096
11
172.904880
21
720.693720
0
LINE
8
0
10
172.904880
20
720.693720
11
175.150737
21
722.396196
0
LINE
8
0
10
175.150737
20
722.396196
11
177.614080
21
723.854189
0
LINE
8
0
10
177.614080
20
723.854189
11
180.299423
21
725.092024
0
LINE
8
0
10
180.299423
20
725.092024
11
183.211280
21
726.134030
0
LINE
8
0
10
183.211280
20
726.134030
11
185.665501
21
726.820488
0
LINE
8
0
10
185.665501
20
726.820488
11
188.191005
21
727.368229
0
LINE
8
0
10
188.191005
20
727.368229
11
193.357480
21
728.077660
0
LINE
8
0
10
193.357480
20
728.077660
11
197.163038
21
728.268945
0
LINE
8
0
10
197.163038
20
728.268945
11
201.224120
21
728.177360
0
LINE
8
0
10
201.224120
20
728.177360
11
204.927383
21
727.846480
0
LINE
8
0
10
204.927383
20
727.846480
11
208.165930
21
727.350510
0
LINE
8
0
10
208.165930
20
727.350510
11
211.638719
21
726.605015
0
LINE
8
0
10
211.638719
20
726.605015
11
215.185450
21
725.550880
0
LINE
8
0
10
215.185450
20
725.550880
11
218.307831
21
724.350360
0
LINE
8
0
10
218.307831
20
724.350360
11
221.169970
21
723.089210
0
LINE
8
0
10
221.169970
20
723.089210
11
223.172349
21
722.066752
0
LINE
8
0
10
223.172349
20
722.066752
11
225.223080
21
720.740110
0
LINE
8
0
10
225.223080
20
720.740110
11
229.514040
21
717.395980
0
LINE
8
0
10
229.514040
20
717.395980
11
230.283356
21
716.642650
0
LINE
8
0
10
230.283356
20
716.642650
11
231.085080
21
715.608010
0
LINE
8
0
10
231.085080
20
715.608010
11
232.410043
21
713.575859
0
LINE
8
0
10
232.410043
20
713.575859
11
233.587540
21
711.418870
0
LINE
8
0
10
233.587540
20
711.418870
11
234.191600
21
709.807109
0
LINE
8
0
10
234.191600
20
709.807109
11
234.337890
21
708.614260
0
LINE
8
0
10
234.337890
20
708.614260
11
234.416071
21
706.920902
0
LINE
8
0
10
234.416071
20
706.920902
11
234.038530
21
704.915830
0
LINE
8
0
10
234.038530
20
704.915830
11
233.518627
21
703.582574
0
LINE
8
0
10
233.518627
20
703.582574
11
232.743754
21
702.144167
0
LINE
8
0
10
232.743754
20
702.144167
11
231.729418
21
700.689317
0
LINE
8
0
10
231.729418
20
700.689317
11
230.491130
21
699.306730
0
LINE
8
0
10
230.491130
20
699.306730
11
229.030571
21
698.037931
0
LINE
8
0
10
229.030571
20
698.037931
11
227.340460
21
696.844979
0
LINE
8
0
10
227.340460
20
696.844979
11
225.465811
21
695.739452
0
LINE
8
0
10
225.465811
20
695.739452
11
223.451640
21
694.732930
0
LINE
8
0
10
223.451640
20
694.732930
11
219.336745
21
693.135821
0
LINE
8
0
10
219.336745
20
693.135821
11
215.587490
21
692.123120
0
LINE
8
0
10
215.587490
20
692.123120
11
213.109275
21
691.629295
0
LINE
8
0
10
213.109275
20
691.629295
11
210.641830
21
691.285800
0
LINE
8
0
10
210.641830
20
691.285800
11
207.792574
21
691.086116
0
LINE
8
0
10
207.792574
20
691.086116
11
204.274370
21
691.030770
0
LINE
8
0
10
204.274370
20
691.030770
11
200.408419
21
691.155981
0
LINE
8
0
10
200.408419
20
691.155981
11
197.092240
21
691.444820
0
LINE
8
0
10
197.092240
20
691.444820
11
194.360473
21
691.880402
0
LINE
8
0
10
194.360473
20
691.880402
11
191.883510
21
692.415720
0
LINE
8
0
10
191.883510
20
692.415720
11
187.309540
21
693.660430
0
LINE
8
0
10
187.309540
20
693.660430
11
184.655405
21
694.657177
0
LINE
8
0
10
184.655405
20
694.657177
11
181.826940
21
695.887040
0
LINE
8
0
10
168.202000
20
713.502000
11
234.421200
21
707.050860
0
LINE
8
0
10
202.113000
20
687.252000
11
202.113000
21
687.294400
0
LINE
8
0
10
202.113000
20
691.077000
11
202.113000
21
708.729800
0
LINE
8
0
10
202.113000
20
728.119000
11
202.113000
21
691.077000
0
LINE
8
0
10
202.113000
20
687.294000
11
202.113000
21
687.251600
0
LINE
8
0
10
202.113000
20
691.678000
11
200.385806
21
691.840864
0
LINE
8
0
10
200.385806
20
691.840864
11
198.710790
21
692.319068
0
LINE
8
0
10
198.710790
20
692.319068
11
197.106954
21
693.097031
0
LINE
8
0
10
197.106954
20
693.097031
11
195.593300
21
694.159169
0
LINE
8
0
10
195.593300
20
694.159169
11
194.188830
21
695.489903
0
LINE
8
0
10
194.188830
20
695.489903
11
192.912547
21
697.073648
0
LINE
8
0
10
192.912547
20
697.073648
11
191.783452
21
698.894825
0
LINE
8
0
10
191.783452
20
698.894825
11
190.820548
21
700.937850
0
LINE
8
0
10
190.820548
20
700.937850
11
190.056258
21
703.143739
0
LINE
8
0
10
190.056258
20
703.143739
11
189.510337
21
705.443120
0
LINE
8
0
10
189.510337
20
705.443120
11
189.182784
21
707.804828
0
LINE
8
0
10
189.182784
20
707.804828
11
189.073600
21
710.197700
0
LINE
8
0
10
189.073600
20
710.197700
11
189.182784
21
712.590572
0
LINE
8
0
10
189.182784
20
712.590572
11
189.510337
21
714.952280
0
LINE
8
0
10
189.510337
20
714.952280
11
190.056258
21
717.251661
0
LINE
8
0
10
190.056258
20
717.251661
11
190.820548
21
719.457550
0
LINE
8
0
10
190.820548
20
719.457550
11
191.783452
21
721.500575
0
LINE
8
0
10
191.783452
20
721.500575
11
192.912547
21
723.321752
0
LINE
8
0
10
192.912547
20
723.321752
11
194.188830
21
724.905498
0
LINE
8
0
10
194.188830
20
724.905498
11
195.593300
21
726.236231
0
LINE
8
0
10
195.593300
20
726.236231
11
197.106954
21
727.298370
0
LINE
8
0
10
197.106954
20
727.298370
11
198.710790
21
728.076332
0
LINE
8
0
10
198.710790
20
728.076332
11
200.385806
21
728.554536
0
LINE
8
0
10
200.385806
20
728.554536
11
202.113000
21
728.717400
0
LINE
8
0
10
202.113000
20
728.717400
11
203.840194
21
728.554536
0
LINE
8
0
10
203.840194
20
728.554536
11
205.515210
21
728.076332
0
LINE
8
0
10
205.515210
20
728.076332
11
207.119046
21
727.298370
0
LINE
8
0
10
207.119046
20
727.298370
11
208.632700
21
726.236231
0
LINE
8
0
10
208.632700
20
726.236231
11
210.037170
21
724.905498
0
LINE
8
0
10
210.037170
20
724.905498
11
211.313454
21
723.321752
0
LINE
8
0
10
211.313454
20
723.321752
11
212.442549
21
721.500576
0
LINE
8
0
10
212.442549
20
721.500576
11
213.405453
21
719.457550
0
LINE
8
0
10
213.405453
20
719.457550
11
214.169743
21
717.251661
0
LINE
8
0
10
214.169743
20
717.251661
11
214.715664
21
714.952280
0
LINE
8
0
10
214.715664
20
714.952280
11
215.043217
21
712.590572
0
LINE
8
0
10
215.043217
20
712.590572
11
215.152401
21
710.197700
0
LINE
8
0
10
215.152401
20
710.197700
11
215.043217
21
707.804828
0
LINE
8
0
10
215.043217
20
707.804828
11
214.715664
21
705.443119
0
LINE
8
0
10
214.715664
20
705.443119
11
214.169743
21
703.143739
0
LINE
8
0
10
214.169743
20
703.143739
11
213.405453
21
700.937849
0
LINE
8
0
10
213.405453
20
700.937849
11
212.442549
21
698.894824
0
LINE
8
0
10
212.442549
20
698.894824
11
211.313454
21
697.073648
0
LINE
8
0
10
211.313454
20
697.073648
11
210.037170
21
695.489902
0
LINE
8
0
10
210.037170
20
695.489902
11
208.632700
21
694.159169
0
LINE
8
0
10
208.632700
20
694.159169
11
207.119046
21
693.097030
0
LINE
8
0
10
207.119046
20
693.097030
11
205.515210
21
692.319068
0
LINE
8
0
10
205.515210
20
692.319068
11
203.840194
21
691.840864
0
LINE
8
0
10
203.840194
20
691.840864
11
202.113000
21
691.678000
0
LINE
8
0
10
202.113000
20
691.678000
11
202.113000
21
691.678000
0
LINE
8
0
10
189.074000
20
710.198000
11
215.152700
21
710.198000
0
LINE
8
0
10
202.113000
20
728.718000
11
202.113000
21
691.678000
0
LINE
8
0
10
202.113000
20
721.537000
11
203.164333
21
721.437287
0
LINE
8
0
10
203.164333
20
721.437287
11
204.183906
21
721.144509
0
LINE
8
0
10
204.183906
20
721.144509
11
205.160152
21
720.668205
0
LINE
8
0
10
205.160152
20
720.668205
11
206.081505
21
720.017916
0
LINE
8
0
10
206.081505
20
720.017916
11
206.936398
21
719.203181
0
LINE
8
0
10
206.936398
20
719.203181
11
207.713265
21
718.233540
0
LINE
8
0
10
207.713265
20
718.233540
11
208.400539
21
717.118533
0
LINE
8
0
10
208.400539
20
717.118533
11
208.986653
21
715.867700
0
LINE
8
0
10
208.986653
20
715.867700
11
209.784171
21
713.109370
0
LINE
8
0
10
209.784171
20
713.109370
11
210.050011
21
710.198400
0
LINE
8
0
10
210.050011
20
710.198400
11
209.784171
21
707.287430
0
LINE
8
0
10
209.784171
20
707.287430
11
208.986653
21
704.529100
0
LINE
8
0
10
208.986653
20
704.529100
11
208.400539
21
703.278267
0
LINE
8
0
10
208.400539
20
703.278267
11
207.713265
21
702.163260
0
LINE
8
0
10
207.713265
20
702.163260
11
206.936398
21
701.193619
0
LINE
8
0
10
206.936398
20
701.193619
11
206.081505
21
700.378884
0
LINE
8
0
10
206.081505
20
700.378884
11
205.160152
21
699.728595
0
LINE
8
0
10
205.160152
20
699.728595
11
204.183906
21
699.252291
0
LINE
8
0
10
204.183906
20
699.252291
11
203.164333
21
698.959513
0
LINE
8
0
10
203.164333
20
698.959513
11
202.113000
21
698.859800
0
LINE
8
0
10
202.113000
20
698.859800
11
201.061667
21
698.959513
0
LINE
8
0
10
201.061667
20
698.959513
11
200.042094
21
699.252291
0
LINE
8
0
10
200.042094
20
699.252291
11
199.065848
21
699.728595
0
LINE
8
0
10
199.065848
20
699.728595
11
198.144495
21
700.378884
0
LINE
8
0
10
198.144495
20
700.378884
11
197.289602
21
701.193619
0
LINE
8
0
10
197.289602
20
701.193619
11
196.512735
21
702.163260
0
LINE
8
0
10
196.512735
20
702.163260
11
195.825461
21
703.278267
0
LINE
8
0
10
195.825461
20
703.278267
11
195.239347
21
704.529100
0
LINE
8
0
10
195.239347
20
704.529100
11
194.441829
21
707.287430
0
LINE
8
0
10
194.441829
20
707.287430
11
194.175989
21
710.198400
0
LINE
8
0
10
194.175989
20
710.198400
11
194.441829
21
713.109370
0
LINE
8
0
10
194.441829
20
713.109370
11
195.239347
21
715.867700
0
LINE
8
0
10
195.239347
20
715.867700
11
195.825461
21
717.118533
0
LINE
8
0
10
195.825461
20
717.118533
11
196.512735
21
718.233540
0
LINE
8
0
10
196.512735
20
718.233540
11
197.289602
21
719.203181
0
LINE
8
0
10
197.289602
20
719.203181
11
198.144495
21
720.017916
0
LINE
8
0
10
198.144495
20
720.017916
11
199.065848
21
720.668205
0
LINE
8
0
10
199.065848
20
720.668205
11
200.042094
21
721.144509
0
LINE
8
0
10
200.042094
20
721.144509
11
201.061667
21
721.437287
0
LINE
8
0
10
201.061667
20
721.437287
11
202.113000
21
721.537000
0
LINE
8
0
10
202.113000
20
721.537000
11
202.113000
21
721.537000
0
LINE
8
0
10
210.050000
20
710.198000
11
194.176000
21
710.198000
0
LINE
8
0
10
202.113000
20
698.859000
11
202.113000
21
721.536200
0
LINE
8
0
10
202.113000
20
710.198000
11
199.278350
21
710.198000
0
LINE
8
0
10
202.113000
20
703.962000
11
201.743240
21
704.060139
0
LINE
8
0
10
201.743240
20
704.060139
11
201.020410
21
704.675110
0
LINE
8
0
10
201.020410
20
704.675110
11
200.432548
21
705.529366
0
LINE
8
0
10
200.432548
20
705.529366
11
199.894663
21
706.717990
0
LINE
8
0
10
199.894663
20
706.717990
11
199.486478
21
708.152007
0
LINE
8
0
10
199.486478
20
708.152007
11
199.287720
21
709.742440
0
LINE
8
0
10
199.287720
20
709.742440
11
199.350178
21
711.337710
0
LINE
8
0
10
199.350178
20
711.337710
11
199.632648
21
712.849230
0
LINE
8
0
10
199.632648
20
712.849230
11
200.079768
21
714.178042
0
LINE
8
0
10
200.079768
20
714.178042
11
200.636180
21
715.225190
0
LINE
8
0
10
200.636180
20
715.225190
11
201.503017
21
716.169244
0
LINE
8
0
10
201.503017
20
716.169244
11
202.024570
21
716.426170
0
LINE
8
0
10
202.024570
20
716.426170
11
202.302009
21
716.426832
0
LINE
8
0
10
202.302009
20
716.426832
11
202.840530
21
716.076870
0
LINE
8
0
10
202.840530
20
716.076870
11
203.374072
21
715.493159
0
LINE
8
0
10
203.374072
20
715.493159
11
203.937481
21
714.586499
0
LINE
8
0
10
203.937481
20
714.586499
11
204.441733
21
713.407339
0
LINE
8
0
10
204.441733
20
713.407339
11
204.797800
21
712.006130
0
LINE
8
0
10
204.797800
20
712.006130
11
204.930289
21
710.284727
0
LINE
8
0
10
204.930289
20
710.284727
11
204.792589
21
708.557380
0
LINE
8
0
10
204.792589
20
708.557380
11
204.428042
21
706.964381
0
LINE
8
0
10
204.428042
20
706.964381
11
203.879990
21
705.646020
0
LINE
8
0
10
203.879990
20
705.646020
11
202.931100
21
704.407594
0
LINE
8
0
10
202.931100
20
704.407594
11
202.277140
21
703.988580
0
LINE
8
0
10
202.277140
20
703.988580
11
202.113000
21
703.961980
0
LINE
8
0
10
202.113000
20
700.135000
11
200.650315
21
700.398023
0
LINE
8
0
10
200.650315
20
700.398023
11
199.221302
21
701.172644
0
LINE
8
0
10
199.221302
20
701.172644
11
197.909722
21
702.437193
0
LINE
8
0
10
197.909722
20
702.437193
11
196.799330
21
704.170000
0
LINE
8
0
10
196.799330
20
704.170000
11
195.939701
21
706.516876
0
LINE
8
0
10
195.939701
20
706.516876
11
195.520359
21
709.138970
0
LINE
8
0
10
195.520359
20
709.138970
11
195.559430
21
711.837654
0
LINE
8
0
10
195.559430
20
711.837654
11
196.075040
21
714.414300
0
LINE
8
0
10
196.075040
20
714.414300
11
196.953297
21
716.497140
0
LINE
8
0
10
196.953297
20
716.497140
11
198.119307
21
718.179741
0
LINE
8
0
10
198.119307
20
718.179741
11
199.475417
21
719.399722
0
LINE
8
0
10
199.475417
20
719.399722
11
200.923970
21
720.094700
0
LINE
8
0
10
200.923970
20
720.094700
11
202.399721
21
720.250170
0
LINE
8
0
10
202.399721
20
720.250170
11
203.871296
21
719.895096
0
LINE
8
0
10
203.871296
20
719.895096
11
205.278613
21
719.028561
0
LINE
8
0
10
205.278613
20
719.028561
11
206.561590
21
717.649650
0
LINE
8
0
10
206.561590
20
717.649650
11
207.682454
21
715.632590
0
LINE
8
0
10
207.682454
20
715.632590
11
208.429640
21
713.219379
0
LINE
8
0
10
208.429640
20
713.219379
11
208.752581
21
710.592701
0
LINE
8
0
10
208.752581
20
710.592701
11
208.600710
21
707.935240
0
LINE
8
0
10
208.600710
20
707.935240
11
207.991674
21
705.547044
0
LINE
8
0
10
207.991674
20
705.547044
11
207.011105
21
703.476920
0
LINE
8
0
10
207.011105
20
703.476920
11
205.757393
21
701.832818
0
LINE
8
0
10
205.757393
20
701.832818
11
204.328930
21
700.722690
0
LINE
8
0
10
204.328930
20
700.722690
11
203.226054
21
700.280172
0
LINE
8
0
10
203.226054
20
700.280172
11
202.113000
21
700.134970
0
LINE
8
0
10
202.113000
20
718.985000
11
202.826405
21
718.907723
0
LINE
8
0
10
202.826405
20
718.907723
11
203.518258
21
718.680820
0
LINE
8
0
10
203.518258
20
718.680820
11
204.805915
21
717.807712
0
LINE
8
0
10
204.805915
20
717.807712
11
205.913181
21
716.424822
0
LINE
8
0
10
205.913181
20
716.424822
11
206.777266
21
714.591300
0
LINE
8
0
10
206.777266
20
714.591300
11
207.318439
21
712.453597
0
LINE
8
0
10
207.318439
20
712.453597
11
207.498830
21
710.197600
0
LINE
8
0
10
207.498830
20
710.197600
11
207.318439
21
707.941602
0
LINE
8
0
10
207.318439
20
707.941602
11
206.777266
21
705.803900
0
LINE
8
0
10
206.777266
20
705.803900
11
205.913181
21
703.970377
0
LINE
8
0
10
205.913181
20
703.970377
11
204.805915
21
702.587488
0
LINE
8
0
10
204.805915
20
702.587488
11
203.518258
21
701.714380
0
LINE
8
0
10
203.518258
20
701.714380
11
202.826405
21
701.487477
0
LINE
8
0
10
202.826405
20
701.487477
11
202.113000
21
701.410200
0
LINE
8
0
10
202.113000
20
701.410200
11
201.399595
21
701.487477
0
LINE
8
0
10
201.399595
20
701.487477
11
200.707742
21
701.714380
0
LINE
8
0
10
200.707742
20
701.714380
11
199.420085
21
702.587488
0
LINE
8
0
10
199.420085
20
702.587488
11
198.312819
21
703.970378
0
LINE
8
0
10
198.312819
20
703.970378
11
197.448734
21
705.803900
0
LINE
8
0
10
197.448734
20
705.803900
11
196.907561
21
707.941603
0
LINE
8
0
10
196.907561
20
707.941603
11
196.727170
21
710.197600
0
LINE
8
0
10
196.727170
20
710.197600
11
196.907561
21
712.453598
0
LINE
8
0
10
196.907561
20
712.453598
11
197.448734
21
714.591300
0
LINE
8
0
10
197.448734
20
714.591300
11
198.312819
21
716.424823
0
LINE
8
0
10
198.312819
20
716.424823
11
199.420085
21
717.807712
0
LINE
8
0
10
199.420085
20
717.807712
11
200.707742
21
718.680820
0
LINE
8
0
10
200.707742
20
718.680820
11
201.399595
21
718.907723
0
LINE
8
0
10
201.399595
20
718.907723
11
202.113000
21
718.985000
0
LINE
8
0
10
202.113000
20
718.985000
11
202.113000
21
718.985000
0
LINE
8
0
10
202.113000
20
717.710000
11
203.186771
21
717.452632
0
LINE
8
0
10
203.186771
20
717.452632
11
204.170953
21
716.707700
0
LINE
8
0
10
204.170953
20
716.707700
11
205.017449
21
715.525829
0
LINE
8
0
10
205.017449
20
715.525829
11
205.678161
21
713.957643
0
LINE
8
0
10
205.678161
20
713.957643
11
206.092000
21
712.128641
0
LINE
8
0
10
206.092000
20
712.128641
11
206.229947
21
710.198200
0
LINE
8
0
10
206.229947
20
710.198200
11
206.092000
21
708.267759
0
LINE
8
0
10
206.092000
20
708.267759
11
205.678161
21
706.438757
0
LINE
8
0
10
205.678161
20
706.438757
11
205.017449
21
704.870571
0
LINE
8
0
10
205.017449
20
704.870571
11
204.170953
21
703.688700
0
LINE
8
0
10
204.170953
20
703.688700
11
203.186771
21
702.943768
0
LINE
8
0
10
203.186771
20
702.943768
11
202.113000
21
702.686400
0
LINE
8
0
10
202.113000
20
702.686400
11
201.039229
21
702.943768
0
LINE
8
0
10
201.039229
20
702.943768
11
200.055047
21
703.688700
0
LINE
8
0
10
200.055047
20
703.688700
11
199.208551
21
704.870571
0
LINE
8
0
10
199.208551
20
704.870571
11
198.547839
21
706.438757
0
LINE
8
0
10
198.547839
20
706.438757
11
198.134000
21
708.267759
0
LINE
8
0
10
198.134000
20
708.267759
11
197.996053
21
710.198200
0
LINE
8
0
10
197.996053
20
710.198200
11
198.134000
21
712.128641
0
LINE
8
0
10
198.134000
20
712.128641
11
198.547839
21
713.957643
0
LINE
8
0
10
198.547839
20
713.957643
11
199.208551
21
715.525829
0
LINE
8
0
10
199.208551
20
715.525829
11
200.055047
21
716.707700
0
LINE
8
0
10
200.055047
20
716.707700
11
201.039229
21
717.452632
0
LINE
8
0
10
201.039229
20
717.452632
11
202.113000
21
717.710000
0
LINE
8
0
10
202.113000
20
717.710000
11
202.113000
21
717.710000
0
LINE
8
0
10
202.113000
20
710.198000
11
202.113000
21
691.077000
0
LINE
8
0
10
168.202000
20
713.502000
11
234.421200
21
707.050860
0
LINE
8
0
10
234.421000
20
707.051000
11
230.344685
21
705.201747
0
LINE
8
0
10
230.344685
20
705.201747
11
226.185607
21
703.660073
0
LINE
8
0
10
226.185607
20
703.660073
11
221.959717
21
702.424424
0
LINE
8
0
10
221.959717
20
702.424424
11
217.682969
21
701.493246
0
LINE
8
0
10
217.682969
20
701.493246
11
213.371315
21
700.864984
0
LINE
8
0
10
213.371315
20
700.864984
11
209.040708
21
700.538086
0
LINE
8
0
10
209.040708
20
700.538086
11
204.707101
21
700.510996
0
LINE
8
0
10
204.707101
20
700.510996
11
200.386445
21
700.782160
0
LINE
8
0
10
200.386445
20
700.782160
11
196.094695
21
701.350025
0
LINE
8
0
10
196.094695
20
701.350025
11
191.847802
21
702.213036
0
LINE
8
0
10
191.847802
20
702.213036
11
187.661719
21
703.369639
0
LINE
8
0
10
187.661719
20
703.369639
11
183.552399
21
704.818280
0
LINE
8
0
10
183.552399
20
704.818280
11
179.535794
21
706.557404
0
LINE
8
0
10
179.535794
20
706.557404
11
175.627858
21
708.585459
0
LINE
8
0
10
175.627858
20
708.585459
11
171.844542
21
710.900889
0
LINE
8
0
10
171.844542
20
710.900889
11
168.201800
21
713.502140
0
LINE
8
0
10
202.113000
20
728.119000
11
202.113000
21
710.197500
0
LINE
8
0
10
168.202000
20
713.502000
11
172.299360
21
715.203016
0
LINE
8
0
10
172.299360
20
715.203016
11
176.467303
21
716.617131
0
LINE
8
0
10
176.467303
20
716.617131
11
180.691886
21
717.745704
0
LINE
8
0
10
180.691886
20
717.745704
11
184.959166
21
718.590092
0
LINE
8
0
10
184.959166
20
718.590092
11
189.255197
21
719.151655
0
LINE
8
0
10
189.255197
20
719.151655
11
193.566035
21
719.431750
0
LINE
8
0
10
193.566035
20
719.431750
11
197.877738
21
719.431737
0
LINE
8
0
10
197.877738
20
719.431737
11
202.176362
21
719.152973
0
LINE
8
0
10
202.176362
20
719.152973
11
206.447961
21
718.596817
0
LINE
8
0
10
206.447961
20
718.596817
11
210.678593
21
717.764628
0
LINE
8
0
10
210.678593
20
717.764628
11
214.854312
21
716.657763
0
LINE
8
0
10
214.854312
20
716.657763
11
218.961177
21
715.277582
0
LINE
8
0
10
218.961177
20
715.277582
11
222.985242
21
713.625443
0
LINE
8
0
10
222.985242
20
713.625443
11
226.912563
21
711.702704
0
LINE
8
0
10
226.912563
20
711.702704
11
230.729197
21
709.510723
0
LINE
8
0
10
230.729197
20
709.510723
11
234.421200
21
707.050860
 0 
ENDSEC
 0 
EOF