<?xml version="1.0" encoding="UTF-8" standalone="no"?>
<svg
   xmlns:dc="http://purl.org/dc/elements/1.1/"
   xmlns:cc="http://creativecommons.org/ns#"
   xmlns:rdf="http://www.w3.org/1999/02/22-rdf-syntax-ns#"
   xmlns:svg="http://www.w3.org/2000/svg"
   xmlns="http://www.w3.org/2000/svg"
   xmlns:sodipodi="http://sodipodi.sourceforge.net/DTD/sodipodi-0.dtd"
   xmlns:inkscape="http://www.inkscape.org/namespaces/inkscape"
   inkscape:export-ydpi="119.503"
   inkscape:export-xdpi="119.503"
   inkscape:export-filename="E:\ドキュメント\projectFile\コンパクト型コミュニケーションロボット\berryfact_V3.0\eye2\pupil\pupil4_L.png"
   inkscape:version="1.0 (4035a4fb49, 2020-05-01)"
   sodipodi:docname="pupil4_L.svg"
   id="svg36"
   version="1.1"
   height="51.72126"
   width="77.11969"
   viewBox="0 0 77.119688 51.721262">
  <metadata
     id="metadata40">
    <rdf:RDF>
      <cc:Work
         rdf:about="">
        <dc:format>image/svg+xml</dc:format>
        <dc:type
           rdf:resource="http://purl.org/dc/dcmitype/StillImage" />
        <dc:title />
      </cc:Work>
    </rdf:RDF>
  </metadata>
  <sodipodi:namedview
     inkscape:current-layer="g32"
     inkscape:window-maximized="1"
     inkscape:window-y="-8"
     inkscape:window-x="-8"
     inkscape:cy="36.812742"
     inkscape:cx="52.982733"
     inkscape:zoom="7.4929139"
     fit-margin-bottom="0"
     fit-margin-right="0"
     fit-margin-left="0"
     fit-margin-top="0"
     showgrid="false"
     id="namedview38"
     inkscape:window-height="1017"
     inkscape:window-width="1920"
     inkscape:pageshadow="2"
     inkscape:pageopacity="0"
     guidetolerance="10"
     gridtolerance="10"
     objecttolerance="10"
     borderopacity="1"
     bordercolor="#666666"
     pagecolor="#ffffff"
     inkscape:document-rotation="0" />
  <defs
     id="defs14">
    <marker
       style="overflow:visible"
       refY="0"
       refX="0"
       orient="auto"
       id="DistanceX">
      <path
         id="path2"
         style="stroke:#000000;stroke-width:0.5"
         d="M 3,-3 -3,3 M 0,-5 V 5" />
    </marker>
    <pattern
       y="0"
       x="0"
       height="8"
       width="8"
       patternUnits="userSpaceOnUse"
       id="Hatch">
      <path
         id="path5"
         linecap="square"
         stroke-width="0.25"
         stroke="#000000"
         d="M8 4 l-4,4" />
      <path
         id="path7"
         linecap="square"
         stroke-width="0.25"
         stroke="#000000"
         d="M6 2 l-4,4" />
      <path
         id="path9"
         linecap="square"
         stroke-width="0.25"
         stroke="#000000"
         d="M4 0 l-4,4" />
    </pattern>
    <symbol
       id="*MODEL_SPACE" />
    <symbol
       id="*PAPER_SPACE" />
  </defs>
  <g
     transform="translate(-77.320121,-780.52087)"
     id="g32"
     inkscape:label="0"
     inkscape:groupmode="layer">
    <path
       id="path16"
       style="fill:#ffffff;stroke:#000000;fill-opacity:1"
       d="M 153.93981,781.02087 H 77.820121 v 50.72126 h 76.119689 z" />
    <path
       id="path20"
       style="fill:#1252e6;stroke:#121fad;fill-opacity:1;stroke-opacity:1"
       d="m 135.31621,807.70643 a 17.854156,17.854156 0 1 0 -35.708312,0 17.854156,17.854156 0 1 0 35.708312,0 z" />
    <path
       id="path22"
       style="fill:#000000;stroke:#000000;fill-opacity:1"
       d="m 128.14867,807.70643 a 10.686615,10.686615 0 1 0 -21.37323,0 10.686615,10.686615 0 1 0 21.37323,0 z"
       inkscape:export-xdpi="119.503"
       inkscape:export-ydpi="119.503" />
    <path
       id="path24"
       style="fill:none;stroke:#000000"
       d="m 120.13418,807.70643 a 2.672126,2.672126 0 1 0 -5.34425,0 2.672126,2.672126 0 1 0 5.34425,0 z" />
    <path
       id="path26"
       style="fill:none;stroke:#000000"
       d="m 124.14142,807.70643 a 6.67937,6.67937 0 1 0 -13.35874,0 6.67937,6.67937 0 1 0 13.35874,0 z" />
    <path
       id="path28"
       style="fill:none;stroke:#000000"
       d="m 126.14504,807.70643 a 8.682992,8.682992 0 1 0 -17.36598,0 8.682992,8.682992 0 1 0 17.36598,0 z" />
    <path
       id="path30"
       style="fill:none;stroke:#000000"
       d="m 122.1378,807.70643 a 4.67575,4.67575 0 1 0 -9.3515,0 4.67575,4.67575 0 1 0 9.3515,0 z" />
  </g>
  <desc
     id="desc34">originPupil.dxf - scale = 1.000000, origin = (0.000000, 0.000000), method = manual</desc>
</svg>
